# This file uses centimeters as units for non-parametric coordinates.

mtllib Lego_1x1_Base.mtl
g default
v 1.000000 0.000000 -1.000000
v 0.000000 0.000000 0.000000
v 0.000000 0.000000 -1.000000
v 1.000000 0.000000 0.000000
v 0.000000 0.200000 0.000000
v 0.358579 0.200000 -0.358579
v 0.000000 0.200000 -1.000000
v 1.000000 0.200000 0.000000
v 0.300000 0.200000 -0.500000
v 0.500000 0.200000 -0.300000
v 0.641421 0.200000 -0.358579
v 0.700000 0.200000 -0.500000
v 0.358579 0.200000 -0.641421
v 1.000000 0.200000 -1.000000
v 0.500000 0.200000 -0.700000
v 0.641421 0.200000 -0.641421
v 0.358579 0.300000 -0.358579
v 0.358579 0.300000 -0.641421
v 0.300000 0.300000 -0.500000
v 0.500000 0.300000 -0.300000
v 0.500000 0.300000 -0.700000
v 0.641421 0.300000 -0.358579
v 0.641421 0.300000 -0.641421
v 0.700000 0.300000 -0.500000
vt -39.370079 39.370079
vt 0.000000 0.000000
vt 0.000000 39.370079
vt -39.370079 0.000000
vt 14.117270 14.117270
vt 39.370079 0.000000
vt 11.811024 19.685040
vt 19.685040 11.811024
vt 25.252810 14.117270
vt 27.559055 19.685040
vt 14.117270 25.252810
vt 39.370079 39.370079
vt 19.685040 27.559055
vt 25.252810 25.252810
vt -39.370079 7.874016
vt 0.000000 7.874016
vt 39.370079 7.874016
vt -22.706488 11.811024
vt -28.732998 7.874016
vt -22.706488 7.874016
vt -28.732998 11.811024
vt -13.666722 11.811024
vt -7.640211 7.874016
vt -7.640211 11.811024
vt -13.666722 7.874016
vt 13.666722 11.811024
vt 7.640211 7.874016
vt 13.666722 7.874016
vt 7.640211 11.811024
vt 28.732998 11.811024
vt 22.706488 7.874016
vt 28.732998 7.874016
vt 22.706488 11.811024
vt 0.000000 0.000000
vt 0.000000 39.370079
vt 0.000000 0.000000
vt 0.000000 39.370079
vt 0.000000 39.370079
vt 0.000000 39.370079
vt -39.370079 0.000000
vt 0.000000 7.874016
vt -39.370079 0.000000
vt 0.000000 0.000000
vt -39.370079 0.000000
vt 0.000000 7.874016
vt -39.370079 7.874016
vt 39.370079 0.000000
vt 0.000000 7.874016
vt 0.000000 0.000000
vt 0.000000 7.874016
vt 39.370079 0.000000
vt 39.370079 7.874016
vt 39.370079 0.000000
vt 39.370079 7.874016
vt 14.117270 14.117270
vt 14.117270 25.252810
vt 11.811024 19.685040
vt 14.117270 25.252810
vt 14.117270 14.117270
vt 19.685040 11.811024
vt 14.117270 25.252810
vt 19.685040 11.811024
vt 19.685040 27.559055
vt 19.685040 27.559055
vt 19.685040 11.811024
vt 25.252810 14.117270
vt 19.685040 27.559055
vt 25.252810 14.117270
vt 25.252810 25.252810
vt 25.252810 25.252810
vt 25.252810 14.117270
vt 27.559055 19.685040
vt -28.732998 11.811024
vt -22.706488 7.874016
vt -22.706488 11.811024
vt -22.706488 7.874016
vt -28.732998 11.811024
vt -28.732998 7.874016
vt 28.732998 7.874016
vt 22.706488 11.811024
vt 22.706488 7.874016
vt 22.706488 11.811024
vt 28.732998 7.874016
vt 28.732998 11.811024
vt 13.666722 7.874016
vt 7.640211 11.811024
vt 7.640211 7.874016
vt 7.640211 11.811024
vt 13.666722 7.874016
vt 13.666722 11.811024
vt -7.640211 11.811024
vt -13.666722 7.874016
vt -7.640211 7.874016
vt -13.666722 7.874016
vt -7.640211 11.811024
vt -13.666722 11.811024
vn 0.000000 -1.000000 0.000000
vn 0.000000 -1.000000 0.000000
vn 0.000000 -1.000000 0.000000
vn 0.000000 -1.000000 0.000000
vn 0.000000 -1.000000 0.000000
vn 0.000000 -1.000000 0.000000
vn 0.000000 1.000000 0.000000
vn 0.000000 1.000000 0.000000
vn 0.000000 1.000000 0.000000
vn 0.000000 1.000000 0.000000
vn 0.000000 1.000000 0.000000
vn 0.000000 1.000000 0.000000
vn 0.000000 1.000000 0.000000
vn 0.000000 1.000000 0.000000
vn 0.000000 1.000000 0.000000
vn 0.000000 1.000000 0.000000
vn 0.000000 1.000000 0.000000
vn 0.000000 1.000000 0.000000
vn 0.000000 1.000000 0.000000
vn 0.000000 1.000000 0.000000
vn 0.000000 1.000000 0.000000
vn 0.000000 1.000000 0.000000
vn 0.000000 1.000000 0.000000
vn 0.000000 1.000000 0.000000
vn 0.000000 1.000000 0.000000
vn 0.000000 1.000000 0.000000
vn 0.000000 1.000000 0.000000
vn 0.000000 1.000000 0.000000
vn 0.000000 1.000000 0.000000
vn 0.000000 1.000000 0.000000
vn 0.000000 1.000000 0.000000
vn 0.000000 1.000000 0.000000
vn 0.000000 1.000000 0.000000
vn 0.000000 1.000000 0.000000
vn 0.000000 1.000000 0.000000
vn 0.000000 1.000000 0.000000
vn 0.000000 1.000000 0.000000
vn 0.000000 1.000000 0.000000
vn 0.000000 1.000000 0.000000
vn 0.000000 1.000000 0.000000
vn 0.000000 1.000000 0.000000
vn 0.000000 1.000000 0.000000
vn -1.000000 0.000000 0.000000
vn -1.000000 0.000000 0.000000
vn -1.000000 0.000000 0.000000
vn -1.000000 0.000000 0.000000
vn -1.000000 0.000000 0.000000
vn -1.000000 0.000000 0.000000
vn 0.000000 0.000000 -1.000000
vn 0.000000 0.000000 -1.000000
vn 0.000000 0.000000 -1.000000
vn 0.000000 0.000000 -1.000000
vn 0.000000 0.000000 -1.000000
vn 0.000000 0.000000 -1.000000
vn 1.000000 0.000000 0.000000
vn 1.000000 0.000000 0.000000
vn 1.000000 0.000000 0.000000
vn 1.000000 0.000000 0.000000
vn 1.000000 0.000000 0.000000
vn 1.000000 0.000000 0.000000
vn 0.000000 0.000000 1.000000
vn 0.000000 0.000000 1.000000
vn 0.000000 0.000000 1.000000
vn 0.000000 0.000000 1.000000
vn 0.000000 0.000000 1.000000
vn 0.000000 0.000000 1.000000
vn 0.000000 1.000000 0.000000
vn 0.000000 1.000000 0.000000
vn 0.000000 1.000000 0.000000
vn 0.000000 1.000000 0.000000
vn 0.000000 1.000000 0.000000
vn 0.000000 1.000000 0.000000
vn 0.000000 1.000000 0.000000
vn 0.000000 1.000000 0.000000
vn 0.000000 1.000000 0.000000
vn 0.000000 1.000000 0.000000
vn 0.000000 1.000000 0.000000
vn 0.000000 1.000000 0.000000
vn 0.000000 1.000000 0.000000
vn 0.000000 1.000000 0.000000
vn 0.000000 1.000000 0.000000
vn 0.000000 1.000000 0.000000
vn 0.000000 1.000000 0.000000
vn 0.000000 1.000000 0.000000
vn -0.382683 0.000000 -0.923880
vn -0.382683 0.000000 -0.923880
vn -0.382683 0.000000 -0.923880
vn -0.382683 0.000000 -0.923880
vn -0.382683 0.000000 -0.923880
vn -0.382683 0.000000 -0.923880
vn -0.923880 0.000000 -0.382683
vn -0.923880 0.000000 -0.382683
vn -0.923880 0.000000 -0.382683
vn -0.923880 0.000000 -0.382683
vn -0.923880 0.000000 -0.382683
vn -0.923880 0.000000 -0.382683
vn -0.923880 0.000000 0.382683
vn -0.923880 0.000000 0.382683
vn -0.923880 0.000000 0.382683
vn -0.923880 0.000000 0.382683
vn -0.923880 0.000000 0.382683
vn -0.923880 0.000000 0.382683
vn -0.382683 0.000000 0.923880
vn -0.382683 0.000000 0.923880
vn -0.382683 0.000000 0.923880
vn -0.382683 0.000000 0.923880
vn -0.382683 0.000000 0.923880
vn -0.382683 0.000000 0.923880
vn 0.382683 0.000000 0.923880
vn 0.382683 0.000000 0.923880
vn 0.382683 0.000000 0.923880
vn 0.382683 0.000000 0.923880
vn 0.382683 0.000000 0.923880
vn 0.382683 0.000000 0.923880
vn 0.923880 0.000000 0.382683
vn 0.923880 0.000000 0.382683
vn 0.923880 0.000000 0.382683
vn 0.923880 0.000000 0.382683
vn 0.923880 0.000000 0.382683
vn 0.923880 0.000000 0.382683
vn 0.923880 0.000000 -0.382683
vn 0.923880 0.000000 -0.382683
vn 0.923880 0.000000 -0.382683
vn 0.923880 0.000000 -0.382683
vn 0.923880 0.000000 -0.382683
vn 0.923880 0.000000 -0.382683
vn 0.382683 0.000000 -0.923880
vn 0.382683 0.000000 -0.923880
vn 0.382683 0.000000 -0.923880
vn 0.382683 0.000000 -0.923880
vn 0.382683 0.000000 -0.923880
vn 0.382683 0.000000 -0.923880
s off
g Lego1x1_SKP_Default_Material
usemtl Default_Material
f 1/1/1 2/2/2 3/3/3
f 2/2/4 1/1/5 4/4/6
f 5/34/7 6/5/8 7/35/9
f 6/5/10 5/36/11 8/6/12
f 7/37/13 6/5/14 9/7/15
f 6/5/16 8/6/17 10/8/18
f 10/8/19 8/6/20 11/9/21
f 11/9/22 8/6/23 12/10/24
f 7/38/25 13/11/26 14/12/27
f 13/11/28 7/39/29 9/7/30
f 14/12/31 13/11/32 15/13/33
f 14/12/34 15/13/35 16/14/36
f 14/12/37 16/14/38 12/10/39
f 14/12/40 12/10/41 8/6/42
f 7/15/43 2/2/44 5/16/45
f 2/2/46 7/15/47 3/40/48
f 7/41/49 1/42/50 3/43/51
f 1/44/52 7/45/53 14/46/54
f 1/47/55 8/48/56 4/49/57
f 8/50/58 1/51/59 14/17/60
f 8/52/61 2/2/62 4/53/63
f 2/2/64 8/54/65 5/16/66
f 17/55/67 18/56/68 19/57/69
f 18/58/70 17/59/71 20/60/72
f 18/61/73 20/62/74 21/63/75
f 21/64/76 20/65/77 22/66/78
f 21/67/79 22/68/80 23/69/81
f 23/70/82 22/71/83 24/72/84
f 18/18/85 15/19/86 13/20/87
f 15/19/88 18/18/89 21/21/90
f 18/73/91 9/74/92 19/75/93
f 9/76/94 18/77/95 13/78/96
f 19/22/97 6/23/98 17/24/99
f 6/23/100 19/22/101 9/25/102
f 20/26/103 6/27/104 10/28/105
f 6/27/106 20/26/107 17/29/108
f 22/30/109 10/31/110 11/32/111
f 10/31/112 22/30/113 20/33/114
f 12/79/115 22/80/116 11/81/117
f 22/82/118 12/83/119 24/84/120
f 16/85/121 24/86/122 12/87/123
f 24/88/124 16/89/125 23/90/126
f 21/91/127 16/92/128 15/93/129
f 16/94/130 21/95/131 23/96/132
